<mxfile host="65bd71144e">
    <diagram name="Use case diagram" id="xtZunVuRfSpyqEBUtS4J">
        <mxGraphModel dx="1346" dy="697" grid="1" gridSize="10" guides="1" tooltips="1" connect="1" arrows="1" fold="1" page="1" pageScale="1" pageWidth="1169" pageHeight="827" math="0" shadow="0">
            <root>
                <mxCell id="0"/>
                <mxCell id="1" parent="0"/>
                <mxCell id="i_DUv70KCGooywqwRf0s-3" value="" style="rounded=0;orthogonalLoop=1;jettySize=auto;html=1;strokeColor=default;endArrow=none;endFill=0;exitX=1;exitY=0.3333333333333333;exitDx=0;exitDy=0;exitPerimeter=0;" parent="1" source="Qo3CJPkrSob604qk2q2i-7" target="i_DUv70KCGooywqwRf0s-2" edge="1">
                    <mxGeometry relative="1" as="geometry">
                        <mxPoint x="100" y="250" as="sourcePoint"/>
                    </mxGeometry>
                </mxCell>
                <mxCell id="i_DUv70KCGooywqwRf0s-1" value="Player" style="shape=umlActor;verticalLabelPosition=bottom;verticalAlign=top;html=1;outlineConnect=0;rounded=1;" parent="1" vertex="1">
                    <mxGeometry x="950" y="20" width="60" height="120" as="geometry"/>
                </mxCell>
                <mxCell id="i_DUv70KCGooywqwRf0s-2" value="Start Game Setup &amp;amp; Player Introduction" style="ellipse;whiteSpace=wrap;html=1;verticalAlign=middle;rounded=1;align=center;labelPosition=center;verticalLabelPosition=middle;" parent="1" vertex="1">
                    <mxGeometry x="535" y="30" width="130" height="60" as="geometry"/>
                </mxCell>
                <mxCell id="vSMD2bVpbC3IDvef_Gb8-3" value="&lt;div style=&quot;&quot;&gt;&amp;lt;&amp;lt;extend&amp;gt;&amp;gt;&lt;/div&gt;" style="rounded=0;orthogonalLoop=1;jettySize=auto;html=1;exitX=0.5;exitY=0;exitDx=0;exitDy=0;entryX=0.5;entryY=1;entryDx=0;entryDy=0;endArrow=none;endFill=0;startArrow=open;startFill=0;dashed=1;align=center;jumpStyle=none;" parent="1" source="i_DUv70KCGooywqwRf0s-4" target="i_DUv70KCGooywqwRf0s-5" edge="1">
                    <mxGeometry x="0.1818" relative="1" as="geometry">
                        <mxPoint as="offset"/>
                    </mxGeometry>
                </mxCell>
                <mxCell id="i_DUv70KCGooywqwRf0s-4" value="Move Player" style="ellipse;whiteSpace=wrap;html=1;verticalAlign=middle;rounded=1;align=center;labelPosition=center;verticalLabelPosition=middle;" parent="1" vertex="1">
                    <mxGeometry x="550" y="318.86" width="100" height="34.28" as="geometry"/>
                </mxCell>
                <mxCell id="i_DUv70KCGooywqwRf0s-5" value="Resolve End of Round" style="ellipse;whiteSpace=wrap;html=1;verticalAlign=middle;rounded=1;align=center;labelPosition=center;verticalLabelPosition=middle;" parent="1" vertex="1">
                    <mxGeometry x="540" y="110" width="120" height="50" as="geometry"/>
                </mxCell>
                <mxCell id="i_DUv70KCGooywqwRf0s-6" value="Declare Game Winner" style="ellipse;whiteSpace=wrap;html=1;verticalAlign=middle;rounded=1;align=center;labelPosition=center;verticalLabelPosition=middle;" parent="1" vertex="1">
                    <mxGeometry x="450" y="160" width="90" height="52" as="geometry"/>
                </mxCell>
                <mxCell id="vSMD2bVpbC3IDvef_Gb8-2" value="" style="rounded=0;orthogonalLoop=1;jettySize=auto;html=1;strokeColor=default;endArrow=none;endFill=0;exitX=1;exitY=0.5;exitDx=0;exitDy=0;entryX=0;entryY=0.3333333333333333;entryDx=0;entryDy=0;entryPerimeter=0;" parent="1" source="i_DUv70KCGooywqwRf0s-4" target="i_DUv70KCGooywqwRf0s-1" edge="1">
                    <mxGeometry relative="1" as="geometry">
                        <mxPoint x="110" y="618" as="sourcePoint"/>
                        <mxPoint x="300" y="618" as="targetPoint"/>
                    </mxGeometry>
                </mxCell>
                <mxCell id="Qo3CJPkrSob604qk2q2i-7" value="Game System" style="shape=umlActor;verticalLabelPosition=bottom;verticalAlign=top;html=1;outlineConnect=0;rounded=1;" parent="1" vertex="1">
                    <mxGeometry x="165" y="20" width="60" height="120" as="geometry"/>
                </mxCell>
                <mxCell id="Qo3CJPkrSob604qk2q2i-8" value="" style="rounded=0;orthogonalLoop=1;jettySize=auto;html=1;strokeColor=default;endArrow=none;endFill=0;entryX=0.333;entryY=0;entryDx=0;entryDy=0;exitX=1;exitY=0.3333333333333333;exitDx=0;exitDy=0;exitPerimeter=0;entryPerimeter=0;" parent="1" source="Qo3CJPkrSob604qk2q2i-7" target="i_DUv70KCGooywqwRf0s-6" edge="1">
                    <mxGeometry relative="1" as="geometry">
                        <mxPoint x="100" y="250" as="sourcePoint"/>
                        <mxPoint x="223" y="166" as="targetPoint"/>
                    </mxGeometry>
                </mxCell>
                <mxCell id="Qo3CJPkrSob604qk2q2i-9" value="" style="rounded=0;orthogonalLoop=1;jettySize=auto;html=1;strokeColor=default;endArrow=none;endFill=0;entryX=0;entryY=0.5;entryDx=0;entryDy=0;exitX=1;exitY=0.3333333333333333;exitDx=0;exitDy=0;exitPerimeter=0;" parent="1" source="Qo3CJPkrSob604qk2q2i-7" target="i_DUv70KCGooywqwRf0s-5" edge="1">
                    <mxGeometry relative="1" as="geometry">
                        <mxPoint x="100" y="250" as="sourcePoint"/>
                        <mxPoint x="210" y="256" as="targetPoint"/>
                    </mxGeometry>
                </mxCell>
                <mxCell id="Qo3CJPkrSob604qk2q2i-15" value="Display Player Score" style="ellipse;whiteSpace=wrap;html=1;verticalAlign=middle;rounded=1;align=center;labelPosition=center;verticalLabelPosition=middle;" parent="1" vertex="1">
                    <mxGeometry x="370" y="270" width="110" height="38.86" as="geometry"/>
                </mxCell>
                <mxCell id="Gk_G7Ch_RsXF_VZHo3o1-1" value="Encounter Knowledge" style="ellipse;whiteSpace=wrap;html=1;verticalAlign=middle;rounded=1;align=center;labelPosition=center;verticalLabelPosition=middle;" parent="1" vertex="1">
                    <mxGeometry x="555" y="414" width="90" height="50" as="geometry"/>
                </mxCell>
                <mxCell id="JbGaIRxd_xf0KVDo2_7p-2" value="&lt;div style=&quot;&quot;&gt;&amp;lt;&amp;lt;extend&amp;gt;&amp;gt;&lt;/div&gt;" style="rounded=0;orthogonalLoop=1;jettySize=auto;html=1;entryX=0.5;entryY=0;entryDx=0;entryDy=0;endArrow=none;endFill=0;startArrow=open;startFill=0;dashed=1;align=center;jumpStyle=none;exitX=0.5;exitY=1;exitDx=0;exitDy=0;" parent="1" source="i_DUv70KCGooywqwRf0s-4" target="Gk_G7Ch_RsXF_VZHo3o1-1" edge="1">
                    <mxGeometry x="0.0053" relative="1" as="geometry">
                        <mxPoint x="100" y="1005.72" as="sourcePoint"/>
                        <mxPoint x="200" y="935.72" as="targetPoint"/>
                        <mxPoint as="offset"/>
                    </mxGeometry>
                </mxCell>
                <mxCell id="FUP2jWrs1B8CLhbwvG2T-1" value="" style="rounded=0;orthogonalLoop=1;jettySize=auto;html=1;strokeColor=default;endArrow=none;endFill=0;entryX=0.33;entryY=0.003;entryDx=0;entryDy=0;exitX=1;exitY=0.3333333333333333;exitDx=0;exitDy=0;exitPerimeter=0;entryPerimeter=0;" parent="1" source="Qo3CJPkrSob604qk2q2i-7" target="i_DUv70KCGooywqwRf0s-4" edge="1">
                    <mxGeometry relative="1" as="geometry">
                        <mxPoint x="100" y="250" as="sourcePoint"/>
                        <mxPoint x="298" y="337" as="targetPoint"/>
                    </mxGeometry>
                </mxCell>
                <mxCell id="N2udNPrH21AUYxStmQhA-1" value="Encounter Resource" style="ellipse;whiteSpace=wrap;html=1;verticalAlign=middle;rounded=1;align=center;labelPosition=center;verticalLabelPosition=middle;" parent="1" vertex="1">
                    <mxGeometry x="680" y="414" width="90" height="50" as="geometry"/>
                </mxCell>
                <mxCell id="N2udNPrH21AUYxStmQhA-2" value="Encounter Pothole" style="ellipse;whiteSpace=wrap;html=1;verticalAlign=middle;rounded=1;align=center;labelPosition=center;verticalLabelPosition=middle;" parent="1" vertex="1">
                    <mxGeometry x="430" y="414" width="90" height="50" as="geometry"/>
                </mxCell>
                <mxCell id="N2udNPrH21AUYxStmQhA-3" value="&lt;div style=&quot;&quot;&gt;&amp;lt;&amp;lt;extend&amp;gt;&amp;gt;&lt;/div&gt;" style="rounded=0;orthogonalLoop=1;jettySize=auto;html=1;entryX=0.5;entryY=0;entryDx=0;entryDy=0;endArrow=none;endFill=0;startArrow=open;startFill=0;dashed=1;align=center;jumpStyle=none;exitX=0;exitY=1;exitDx=0;exitDy=0;" parent="1" source="i_DUv70KCGooywqwRf0s-4" target="N2udNPrH21AUYxStmQhA-2" edge="1">
                    <mxGeometry x="0.0053" relative="1" as="geometry">
                        <mxPoint x="395" y="735.72" as="sourcePoint"/>
                        <mxPoint x="395" y="845.72" as="targetPoint"/>
                        <mxPoint as="offset"/>
                    </mxGeometry>
                </mxCell>
                <mxCell id="N2udNPrH21AUYxStmQhA-4" value="&lt;div style=&quot;&quot;&gt;&amp;lt;&amp;lt;extend&amp;gt;&amp;gt;&lt;/div&gt;" style="rounded=0;orthogonalLoop=1;jettySize=auto;html=1;entryX=0.5;entryY=0;entryDx=0;entryDy=0;endArrow=none;endFill=0;startArrow=open;startFill=0;dashed=1;align=center;jumpStyle=none;exitX=1;exitY=1;exitDx=0;exitDy=0;" parent="1" source="i_DUv70KCGooywqwRf0s-4" target="N2udNPrH21AUYxStmQhA-1" edge="1">
                    <mxGeometry x="0.0053" relative="1" as="geometry">
                        <mxPoint x="395" y="735.72" as="sourcePoint"/>
                        <mxPoint x="395" y="845.72" as="targetPoint"/>
                        <mxPoint as="offset"/>
                    </mxGeometry>
                </mxCell>
                <mxCell id="-n16odAyd5wxSmJXIxZt-1" value="" style="rounded=0;orthogonalLoop=1;jettySize=auto;html=1;strokeColor=default;endArrow=none;endFill=0;entryX=0.352;entryY=-0.006;entryDx=0;entryDy=0;exitX=1;exitY=0.3333333333333333;exitDx=0;exitDy=0;exitPerimeter=0;entryPerimeter=0;" parent="1" source="Qo3CJPkrSob604qk2q2i-7" target="Qo3CJPkrSob604qk2q2i-15" edge="1">
                    <mxGeometry relative="1" as="geometry">
                        <mxPoint x="235" y="70" as="sourcePoint"/>
                        <mxPoint x="301" y="243" as="targetPoint"/>
                    </mxGeometry>
                </mxCell>
            </root>
        </mxGraphModel>
    </diagram>
</mxfile>